<?xml version="1.0" encoding="UTF-8"?>
<svg id="Layer_1" data-name="Layer 1" xmlns="http://www.w3.org/2000/svg" xmlns:xlink="http://www.w3.org/1999/xlink" viewBox="0 0 1920 1080">
  <defs>
    <style>
      .cls-1 {
        fill: none;
      }

      .cls-2 {
        fill: url(#nd);
      }

      .cls-3 {
        fill: #003cf9;
      }
    </style>
    <pattern id="nd" x="0" y="0" width="534" height="532" patternTransform="translate(-1980 -2377.33)" patternUnits="userSpaceOnUse" viewBox="0 0 534 532">
      <g>
        <rect class="cls-1" width="534" height="532"/>
        <g>
          <path class="cls-3" d="M127.67,488.52v86.96c0,10.41-8.44,18.86-18.86,18.86H23.06c-10.41,0-18.85-8.44-18.85-18.86v-86.96c0-10.41,8.44-18.86,18.85-18.86h85.76c10.41,0,18.86,8.44,18.86,18.86ZM34.25,514.92c.36-2.09,1.61-7.73,6.47-12.73,5.07-5.21,10.97-6.53,13.03-6.9v-4.2l-.37-.37h-23.45l-.37.37v23.82h4.69ZM102.32,527.85c0-20.75-13.15-31.73-32.81-31.73s-33.36,10.97-33.36,31.73v45.42h18.47v-45.2c0-9.78,6.74-14.56,14.56-14.56s14.67,4.78,14.67,14.56v45.2h18.47v-45.42Z"/>
          <path class="cls-3" d="M395.76,488.52v86.96c0,10.41-8.44,18.86-18.86,18.86h-85.76c-10.41,0-18.85-8.44-18.85-18.86v-86.96c0-10.41,8.44-18.86,18.85-18.86h85.76c10.41,0,18.86,8.44,18.86,18.86ZM302.33,514.92c.36-2.09,1.61-7.73,6.47-12.73,5.07-5.21,10.97-6.53,13.03-6.9v-4.2l-.37-.37h-23.45l-.37.37v23.82h4.69ZM370.4,527.85c0-20.75-13.15-31.73-32.81-31.73s-33.36,10.97-33.36,31.73v45.42h18.47v-45.2c0-9.78,6.74-14.56,14.56-14.56s14.67,4.78,14.67,14.56v45.2h18.47v-45.42Z"/>
          <path class="cls-3" d="M138.24,575.48v-86.96c0-10.41,8.44-18.86,18.86-18.86h85.76c10.41,0,18.85,8.44,18.85,18.86v86.96c0,10.41-8.44,18.86-18.85,18.86h-85.76c-10.41,0-18.86-8.44-18.86-18.86ZM231.67,549.08c-.36,2.09-1.61,7.73-6.47,12.73-5.07,5.21-10.97,6.53-13.03,6.9v4.2l.37.37h23.45l.37-.37v-23.82h-4.69ZM163.6,536.15c0,20.75,13.15,31.73,32.81,31.73s33.36-10.97,33.36-31.73v-45.42h-18.47v45.2c0,9.78-6.74,14.56-14.56,14.56s-14.67-4.78-14.67-14.56v-45.2h-18.47v45.42Z"/>
          <path class="cls-3" d="M406.33,575.48v-86.96c0-10.41,8.44-18.86,18.86-18.86h85.76c10.41,0,18.85,8.44,18.85,18.86v86.96c0,10.41-8.44,18.86-18.85,18.86h-85.76c-10.41,0-18.86-8.44-18.86-18.86ZM499.75,549.08c-.36,2.09-1.61,7.73-6.47,12.73-5.07,5.21-10.97,6.53-13.03,6.9v4.2l.37.37h23.45l.37-.37v-23.82h-4.69ZM431.68,536.15c0,20.75,13.15,31.73,32.81,31.73s33.36-10.97,33.36-31.73v-45.42h-18.47v45.2c0,9.78-6.74,14.56-14.56,14.56s-14.67-4.78-14.67-14.56v-45.2h-18.47v45.42Z"/>
        </g>
        <g>
          <path class="cls-3" d="M127.67,355.52v86.96c0,10.41-8.44,18.86-18.86,18.86H23.06c-10.41,0-18.85-8.44-18.85-18.86v-86.96c0-10.41,8.44-18.86,18.85-18.86h85.76c10.41,0,18.86,8.44,18.86,18.86ZM34.25,381.92c.36-2.09,1.61-7.73,6.47-12.73,5.07-5.21,10.97-6.53,13.03-6.9v-4.2l-.37-.37h-23.45l-.37.37v23.82h4.69ZM102.32,394.85c0-20.75-13.15-31.73-32.81-31.73s-33.36,10.97-33.36,31.73v45.42h18.47v-45.2c0-9.78,6.74-14.56,14.56-14.56s14.67,4.78,14.67,14.56v45.2h18.47v-45.42Z"/>
          <path class="cls-3" d="M395.76,355.52v86.96c0,10.41-8.44,18.86-18.86,18.86h-85.76c-10.41,0-18.85-8.44-18.85-18.86v-86.96c0-10.41,8.44-18.86,18.85-18.86h85.76c10.41,0,18.86,8.44,18.86,18.86ZM302.33,381.92c.36-2.09,1.61-7.73,6.47-12.73,5.07-5.21,10.97-6.53,13.03-6.9v-4.2l-.37-.37h-23.45l-.37.37v23.82h4.69ZM370.4,394.85c0-20.75-13.15-31.73-32.81-31.73s-33.36,10.97-33.36,31.73v45.42h18.47v-45.2c0-9.78,6.74-14.56,14.56-14.56s14.67,4.78,14.67,14.56v45.2h18.47v-45.42Z"/>
          <path class="cls-3" d="M138.24,442.48v-86.96c0-10.41,8.44-18.86,18.86-18.86h85.76c10.41,0,18.85,8.44,18.85,18.86v86.96c0,10.41-8.44,18.86-18.85,18.86h-85.76c-10.41,0-18.86-8.44-18.86-18.86ZM231.67,416.08c-.36,2.09-1.61,7.73-6.47,12.73-5.07,5.21-10.97,6.53-13.03,6.9v4.2l.37.37h23.45l.37-.37v-23.82h-4.69ZM163.6,403.15c0,20.75,13.15,31.73,32.81,31.73s33.36-10.97,33.36-31.73v-45.42h-18.47v45.2c0,9.78-6.74,14.56-14.56,14.56s-14.67-4.78-14.67-14.56v-45.2h-18.47v45.42Z"/>
          <path class="cls-3" d="M406.33,442.48v-86.96c0-10.41,8.44-18.86,18.86-18.86h85.76c10.41,0,18.85,8.44,18.85,18.86v86.96c0,10.41-8.44,18.86-18.85,18.86h-85.76c-10.41,0-18.86-8.44-18.86-18.86ZM499.75,416.08c-.36,2.09-1.61,7.73-6.47,12.73-5.07,5.21-10.97,6.53-13.03,6.9v4.2l.37.37h23.45l.37-.37v-23.82h-4.69ZM431.68,403.15c0,20.75,13.15,31.73,32.81,31.73s33.36-10.97,33.36-31.73v-45.42h-18.47v45.2c0,9.78-6.74,14.56-14.56,14.56s-14.67-4.78-14.67-14.56v-45.2h-18.47v45.42Z"/>
        </g>
        <g>
          <path class="cls-3" d="M127.67,222.52v86.96c0,10.41-8.44,18.86-18.86,18.86H23.06c-10.41,0-18.85-8.44-18.85-18.86v-86.96c0-10.41,8.44-18.86,18.85-18.86h85.76c10.41,0,18.86,8.44,18.86,18.86ZM34.25,248.92c.36-2.09,1.61-7.73,6.47-12.73,5.07-5.21,10.97-6.53,13.03-6.9v-4.2l-.37-.37h-23.45l-.37.37v23.82h4.69ZM102.32,261.85c0-20.75-13.15-31.73-32.81-31.73s-33.36,10.97-33.36,31.73v45.42h18.47v-45.2c0-9.78,6.74-14.56,14.56-14.56s14.67,4.78,14.67,14.56v45.2h18.47v-45.42Z"/>
          <path class="cls-3" d="M395.76,222.52v86.96c0,10.41-8.44,18.86-18.86,18.86h-85.76c-10.41,0-18.85-8.44-18.85-18.86v-86.96c0-10.41,8.44-18.86,18.85-18.86h85.76c10.41,0,18.86,8.44,18.86,18.86ZM302.33,248.92c.36-2.09,1.61-7.73,6.47-12.73,5.07-5.21,10.97-6.53,13.03-6.9v-4.2l-.37-.37h-23.45l-.37.37v23.82h4.69ZM370.4,261.85c0-20.75-13.15-31.73-32.81-31.73s-33.36,10.97-33.36,31.73v45.42h18.47v-45.2c0-9.78,6.74-14.56,14.56-14.56s14.67,4.78,14.67,14.56v45.2h18.47v-45.42Z"/>
          <path class="cls-3" d="M138.24,309.48v-86.96c0-10.41,8.44-18.86,18.86-18.86h85.76c10.41,0,18.85,8.44,18.85,18.86v86.96c0,10.41-8.44,18.86-18.85,18.86h-85.76c-10.41,0-18.86-8.44-18.86-18.86ZM231.67,283.08c-.36,2.09-1.61,7.73-6.47,12.73-5.07,5.21-10.97,6.53-13.03,6.9v4.2l.37.37h23.45l.37-.37v-23.82h-4.69ZM163.6,270.15c0,20.75,13.15,31.73,32.81,31.73s33.36-10.97,33.36-31.73v-45.42h-18.47v45.2c0,9.78-6.74,14.56-14.56,14.56s-14.67-4.78-14.67-14.56v-45.2h-18.47v45.42Z"/>
          <path class="cls-3" d="M406.33,309.48v-86.96c0-10.41,8.44-18.86,18.86-18.86h85.76c10.41,0,18.85,8.44,18.85,18.86v86.96c0,10.41-8.44,18.86-18.85,18.86h-85.76c-10.41,0-18.86-8.44-18.86-18.86ZM499.75,283.08c-.36,2.09-1.61,7.73-6.47,12.73-5.07,5.21-10.97,6.53-13.03,6.9v4.2l.37.37h23.45l.37-.37v-23.82h-4.69ZM431.68,270.15c0,20.75,13.15,31.73,32.81,31.73s33.36-10.97,33.36-31.73v-45.42h-18.47v45.2c0,9.78-6.74,14.56-14.56,14.56s-14.67-4.78-14.67-14.56v-45.2h-18.47v45.42Z"/>
        </g>
        <g>
          <path class="cls-3" d="M127.67,89.52v86.96c0,10.41-8.44,18.86-18.86,18.86H23.06c-10.41,0-18.85-8.44-18.85-18.86v-86.96c0-10.41,8.44-18.86,18.85-18.86h85.76c10.41,0,18.86,8.44,18.86,18.86ZM34.25,115.92c.36-2.09,1.61-7.73,6.47-12.73,5.07-5.21,10.97-6.53,13.03-6.9v-4.2l-.37-.37h-23.45l-.37.37v23.82h4.69ZM102.32,128.85c0-20.75-13.15-31.73-32.81-31.73s-33.36,10.97-33.36,31.73v45.42h18.47v-45.2c0-9.78,6.74-14.56,14.56-14.56s14.67,4.78,14.67,14.56v45.2h18.47v-45.42Z"/>
          <path class="cls-3" d="M395.76,89.52v86.96c0,10.41-8.44,18.86-18.86,18.86h-85.76c-10.41,0-18.85-8.44-18.85-18.86v-86.96c0-10.41,8.44-18.86,18.85-18.86h85.76c10.41,0,18.86,8.44,18.86,18.86ZM302.33,115.92c.36-2.09,1.61-7.73,6.47-12.73,5.07-5.21,10.97-6.53,13.03-6.9v-4.2l-.37-.37h-23.45l-.37.37v23.82h4.69ZM370.4,128.85c0-20.75-13.15-31.73-32.81-31.73s-33.36,10.97-33.36,31.73v45.42h18.47v-45.2c0-9.78,6.74-14.56,14.56-14.56s14.67,4.78,14.67,14.56v45.2h18.47v-45.42Z"/>
          <path class="cls-3" d="M138.24,176.48v-86.96c0-10.41,8.44-18.86,18.86-18.86h85.76c10.41,0,18.85,8.44,18.85,18.86v86.96c0,10.41-8.44,18.86-18.85,18.86h-85.76c-10.41,0-18.86-8.44-18.86-18.86ZM231.67,150.08c-.36,2.09-1.61,7.73-6.47,12.73-5.07,5.21-10.97,6.53-13.03,6.9v4.2l.37.37h23.45l.37-.37v-23.82h-4.69ZM163.6,137.15c0,20.75,13.15,31.73,32.81,31.73s33.36-10.97,33.36-31.73v-45.42h-18.47v45.2c0,9.78-6.74,14.56-14.56,14.56s-14.67-4.78-14.67-14.56v-45.2h-18.47v45.42Z"/>
          <path class="cls-3" d="M406.33,176.48v-86.96c0-10.41,8.44-18.86,18.86-18.86h85.76c10.41,0,18.85,8.44,18.85,18.86v86.96c0,10.41-8.44,18.86-18.85,18.86h-85.76c-10.41,0-18.86-8.44-18.86-18.86ZM499.75,150.08c-.36,2.09-1.61,7.73-6.47,12.73-5.07,5.21-10.97,6.53-13.03,6.9v4.2l.37.37h23.45l.37-.37v-23.82h-4.69ZM431.68,137.15c0,20.75,13.15,31.73,32.81,31.73s33.36-10.97,33.36-31.73v-45.42h-18.47v45.2c0,9.78-6.74,14.56-14.56,14.56s-14.67-4.78-14.67-14.56v-45.2h-18.47v45.42Z"/>
        </g>
        <g>
          <path class="cls-3" d="M127.67-43.48V43.48c0,10.41-8.44,18.86-18.86,18.86H23.06c-10.41,0-18.85-8.44-18.85-18.86V-43.48c0-10.41,8.44-18.86,18.85-18.86h85.76c10.41,0,18.86,8.44,18.86,18.86ZM34.25-17.08c.36-2.09,1.61-7.73,6.47-12.73,5.07-5.21,10.97-6.53,13.03-6.9v-4.2l-.37-.37h-23.45l-.37.37v23.82h4.69ZM102.32-4.15c0-20.75-13.15-31.73-32.81-31.73S36.15-24.9,36.15-4.15v45.42h18.47V-3.93c0-9.78,6.74-14.56,14.56-14.56s14.67,4.78,14.67,14.56v45.2h18.47V-4.15Z"/>
          <path class="cls-3" d="M395.76-43.48V43.48c0,10.41-8.44,18.86-18.86,18.86h-85.76c-10.41,0-18.85-8.44-18.85-18.86V-43.48c0-10.41,8.44-18.86,18.85-18.86h85.76c10.41,0,18.86,8.44,18.86,18.86ZM302.33-17.08c.36-2.09,1.61-7.73,6.47-12.73,5.07-5.21,10.97-6.53,13.03-6.9v-4.2l-.37-.37h-23.45l-.37.37v23.82h4.69ZM370.4-4.15c0-20.75-13.15-31.73-32.81-31.73s-33.36,10.97-33.36,31.73v45.42h18.47V-3.93c0-9.78,6.74-14.56,14.56-14.56s14.67,4.78,14.67,14.56v45.2h18.47V-4.15Z"/>
          <path class="cls-3" d="M138.24,43.48V-43.48c0-10.41,8.44-18.86,18.86-18.86h85.76c10.41,0,18.85,8.44,18.85,18.86V43.48c0,10.41-8.44,18.86-18.85,18.86h-85.76c-10.41,0-18.86-8.44-18.86-18.86ZM231.67,17.08c-.36,2.09-1.61,7.73-6.47,12.73-5.07,5.21-10.97,6.53-13.03,6.9v4.2l.37.37h23.45l.37-.37v-23.82h-4.69ZM163.6,4.15c0,20.75,13.15,31.73,32.81,31.73s33.36-10.97,33.36-31.73v-45.42h-18.47V3.93c0,9.78-6.74,14.56-14.56,14.56s-14.67-4.78-14.67-14.56v-45.2h-18.47V4.15Z"/>
          <path class="cls-3" d="M406.33,43.48V-43.48c0-10.41,8.44-18.86,18.86-18.86h85.76c10.41,0,18.85,8.44,18.85,18.86V43.48c0,10.41-8.44,18.86-18.85,18.86h-85.76c-10.41,0-18.86-8.44-18.86-18.86ZM499.75,17.08c-.36,2.09-1.61,7.73-6.47,12.73-5.07,5.21-10.97,6.53-13.03,6.9v4.2l.37.37h23.45l.37-.37v-23.82h-4.69ZM431.68,4.15c0,20.75,13.15,31.73,32.81,31.73s33.36-10.97,33.36-31.73v-45.42h-18.47V3.93c0,9.78-6.74,14.56-14.56,14.56s-14.67-4.78-14.67-14.56v-45.2h-18.47V4.15Z"/>
        </g>
      </g>
    </pattern>
  </defs>
  <rect class="cls-2" width="1920" height="1080"/>
</svg>