<?xml version="1.0" encoding="UTF-8"?>
<svg id="Layer_1" data-name="Layer 1" xmlns="http://www.w3.org/2000/svg" xmlns:xlink="http://www.w3.org/1999/xlink" viewBox="0 0 1920 1080">
  <defs>
    <style>
      .cls-1 {
        fill: none;
      }

      .cls-2 {
        fill: #000449;
      }

      .cls-3 {
        fill: url(#NORTHD);
      }
    </style>
    <pattern id="NORTHD" x="0" y="0" width="530" height="456" patternTransform="translate(0 -2377.33)" patternUnits="userSpaceOnUse" viewBox="0 0 530 456">
      <g>
        <rect class="cls-1" width="530" height="456"/>
        <g>
          <g>
            <path class="cls-2" d="M45.88,373.37c0-16.49,11.36-24.55,24.55-24.55s24.73,8.06,24.73,24.55v76.22h31.15v-76.59c0-35-22.17-53.5-55.33-53.5s-56.25,18.51-56.25,53.5v76.59h31.15v-76.22Z"/>
            <g id="lTWLtr">
              <path class="cls-2" d="M44.41,318.11c-3.47.62-13.42,2.85-21.97,11.63-8.21,8.43-10.31,17.94-10.92,21.46H3.62v-40.17l.62-.62h39.54l.62.62v7.08Z"/>
            </g>
          </g>
          <g>
            <path class="cls-2" d="M312.59,373.37c0-16.49,11.36-24.55,24.55-24.55s24.73,8.06,24.73,24.55v76.22h31.15v-76.59c0-35-22.17-53.5-55.33-53.5s-56.25,18.51-56.25,53.5v76.59h31.15v-76.22Z"/>
            <g id="lTWLtr-2" data-name="lTWLtr">
              <path class="cls-2" d="M311.13,318.11c-3.47.62-13.42,2.85-21.97,11.63-8.21,8.43-10.31,17.94-10.92,21.46h-7.91v-40.17l.62-.62h39.54l.62.62v7.08Z"/>
            </g>
          </g>
          <g>
            <path class="cls-2" d="M217.41,386.63c0,16.49-11.36,24.55-24.55,24.55s-24.73-8.06-24.73-24.55v-76.22h-31.15v76.59c0,35,22.17,53.5,55.33,53.5s56.25-18.51,56.25-53.5v-76.59h-31.15v76.22Z"/>
            <g id="lTWLtr-3" data-name="lTWLtr">
              <path class="cls-2" d="M218.87,441.89c3.47-.62,13.42-2.85,21.97-11.63,8.21-8.43,10.31-17.94,10.92-21.46h7.91v40.17l-.62.62h-39.54l-.62-.62v-7.08Z"/>
            </g>
          </g>
          <g>
            <path class="cls-2" d="M484.12,386.63c0,16.49-11.36,24.55-24.55,24.55s-24.73-8.06-24.73-24.55v-76.22h-31.15v76.59c0,35,22.17,53.5,55.33,53.5s56.25-18.51,56.25-53.5v-76.59h-31.15v76.22Z"/>
            <g id="lTWLtr-4" data-name="lTWLtr">
              <path class="cls-2" d="M485.59,441.89c3.47-.62,13.42-2.85,21.97-11.63,8.21-8.43,10.31-17.94,10.92-21.46h7.91v40.17l-.62.62h-39.54l-.62-.62v-7.08Z"/>
            </g>
          </g>
        </g>
        <g>
          <g>
            <path class="cls-2" d="M45.88,221.37c0-16.49,11.36-24.55,24.55-24.55s24.73,8.06,24.73,24.55v76.22h31.15v-76.59c0-35-22.17-53.5-55.33-53.5s-56.25,18.51-56.25,53.5v76.59h31.15v-76.22Z"/>
            <g id="lTWLtr-5" data-name="lTWLtr">
              <path class="cls-2" d="M44.41,166.11c-3.47.62-13.42,2.85-21.97,11.63-8.21,8.43-10.31,17.94-10.92,21.46H3.62v-40.17l.62-.62h39.54l.62.62v7.08Z"/>
            </g>
          </g>
          <g>
            <path class="cls-2" d="M312.59,221.37c0-16.49,11.36-24.55,24.55-24.55s24.73,8.06,24.73,24.55v76.22h31.15v-76.59c0-35-22.17-53.5-55.33-53.5s-56.25,18.51-56.25,53.5v76.59h31.15v-76.22Z"/>
            <g id="lTWLtr-6" data-name="lTWLtr">
              <path class="cls-2" d="M311.13,166.11c-3.47.62-13.42,2.85-21.97,11.63-8.21,8.43-10.31,17.94-10.92,21.46h-7.91v-40.17l.62-.62h39.54l.62.62v7.08Z"/>
            </g>
          </g>
          <g>
            <path class="cls-2" d="M217.41,234.63c0,16.49-11.36,24.55-24.55,24.55s-24.73-8.06-24.73-24.55v-76.22h-31.15v76.59c0,35,22.17,53.5,55.33,53.5s56.25-18.51,56.25-53.5v-76.59h-31.15v76.22Z"/>
            <g id="lTWLtr-7" data-name="lTWLtr">
              <path class="cls-2" d="M218.87,289.89c3.47-.62,13.42-2.85,21.97-11.63,8.21-8.43,10.31-17.94,10.92-21.46h7.91v40.17l-.62.62h-39.54l-.62-.62v-7.08Z"/>
            </g>
          </g>
          <g>
            <path class="cls-2" d="M484.12,234.63c0,16.49-11.36,24.55-24.55,24.55s-24.73-8.06-24.73-24.55v-76.22h-31.15v76.59c0,35,22.17,53.5,55.33,53.5s56.25-18.51,56.25-53.5v-76.59h-31.15v76.22Z"/>
            <g id="lTWLtr-8" data-name="lTWLtr">
              <path class="cls-2" d="M485.59,289.89c3.47-.62,13.42-2.85,21.97-11.63,8.21-8.43,10.31-17.94,10.92-21.46h7.91v40.17l-.62.62h-39.54l-.62-.62v-7.08Z"/>
            </g>
          </g>
        </g>
        <g>
          <g>
            <path class="cls-2" d="M45.88,69.37c0-16.49,11.36-24.55,24.55-24.55s24.73,8.06,24.73,24.55v76.22h31.15v-76.59c0-35-22.17-53.5-55.33-53.5S14.73,34.01,14.73,69v76.59h31.15v-76.22Z"/>
            <g id="lTWLtr-9" data-name="lTWLtr">
              <path class="cls-2" d="M44.41,14.11c-3.47.62-13.42,2.85-21.97,11.63-8.21,8.43-10.31,17.94-10.92,21.46H3.62V7.03l.62-.62h39.54l.62.62v7.08Z"/>
            </g>
          </g>
          <g>
            <path class="cls-2" d="M312.59,69.37c0-16.49,11.36-24.55,24.55-24.55s24.73,8.06,24.73,24.55v76.22h31.15v-76.59c0-35-22.17-53.5-55.33-53.5s-56.25,18.51-56.25,53.5v76.59h31.15v-76.22Z"/>
            <g id="lTWLtr-10" data-name="lTWLtr">
              <path class="cls-2" d="M311.13,14.11c-3.47.62-13.42,2.85-21.97,11.63-8.21,8.43-10.31,17.94-10.92,21.46h-7.91V7.03l.62-.62h39.54l.62.62v7.08Z"/>
            </g>
          </g>
          <g>
            <path class="cls-2" d="M217.41,82.63c0,16.49-11.36,24.55-24.55,24.55s-24.73-8.06-24.73-24.55V6.41h-31.15v76.59c0,35,22.17,53.5,55.33,53.5s56.25-18.51,56.25-53.5V6.41h-31.15v76.22Z"/>
            <g id="lTWLtr-11" data-name="lTWLtr">
              <path class="cls-2" d="M218.87,137.89c3.47-.62,13.42-2.85,21.97-11.63,8.21-8.43,10.31-17.94,10.92-21.46h7.91v40.17l-.62.62h-39.54l-.62-.62v-7.08Z"/>
            </g>
          </g>
          <g>
            <path class="cls-2" d="M484.12,82.63c0,16.49-11.36,24.55-24.55,24.55s-24.73-8.06-24.73-24.55V6.41h-31.15v76.59c0,35,22.17,53.5,55.33,53.5s56.25-18.51,56.25-53.5V6.41h-31.15v76.22Z"/>
            <g id="lTWLtr-12" data-name="lTWLtr">
              <path class="cls-2" d="M485.59,137.89c3.47-.62,13.42-2.85,21.97-11.63,8.21-8.43,10.31-17.94,10.92-21.46h7.91v40.17l-.62.62h-39.54l-.62-.62v-7.08Z"/>
            </g>
          </g>
        </g>
      </g>
    </pattern>
  </defs>
  <rect class="cls-3" width="1920" height="1080"/>
</svg>