<?xml version="1.0" encoding="UTF-8"?>
<svg id="Layer_1" data-name="Layer 1" xmlns="http://www.w3.org/2000/svg" viewBox="0 0 1080 1080">
  <defs>
    <style>
      .cls-1, .cls-2 {
        fill: #fff;
      }

      .cls-3 {
        letter-spacing: -.02em;
      }

      .cls-4 {
        letter-spacing: -.11em;
      }

      .cls-5 {
        fill: #003cf9;
      }

      .cls-6 {
        letter-spacing: -.01em;
      }

      .cls-2 {
        font-family: PrometoTrial-Medium, 'Prometo Trial';
        font-size: 34.88px;
        font-weight: 500;
      }

      .cls-7 {
        letter-spacing: -.02em;
      }
    </style>
  </defs>
  <text class="cls-2" transform="translate(157.59 612.68)"><tspan x="0" y="0">Built </tspan><tspan class="cls-7" x="80.74" y="0">f</tspan><tspan x="93.09" y="0">or </tspan><tspan class="cls-4" x="135.29" y="0">Y</tspan><tspan x="154.62" y="0">our G</tspan><tspan class="cls-6" x="239.82" y="0">r</tspan><tspan class="cls-3" x="252.87" y="0">o</tspan><tspan x="272.5" y="0">wth</tspan></text>
  <g>
    <path class="cls-5" d="M291.32,502.42c22.35,0,37.2,14.71,37.2,36.77s-14.85,36.77-37.2,36.77-37.2-14.71-37.2-36.77,14.85-36.77,37.2-36.77ZM291.32,553.34c7.92,0,13.15-5.8,13.15-14.14s-5.23-14.14-13.15-14.14-13.15,5.8-13.15,14.14,5.23,14.14,13.15,14.14Z"/>
    <path class="cls-5" d="M360.2,574.56h-24.04v-29.28c0-27.58,15.42-41.44,39.18-41.44v24.04c-8.91,0-15.13,4.81-15.13,14.14v32.53Z"/>
    <path class="cls-5" d="M382.83,521.94v-32.81h24.04v15.56h19.94v21.22h-19.94c0,16.27,4.67,24.61,19.94,24.61v24.04c-31.4,0-43.99-18.53-43.99-52.62Z"/>
    <path class="cls-5" d="M458.08,574.56h-24.04v-106.08h24.04v50.35h1.41c0-5.37,4.81-16.41,20.37-16.41,19.66,0,29,13.86,29,34.37v37.76h-24.05v-37.06c0-7.64-4.95-12.45-13.3-12.45s-13.44,4.81-13.44,12.45v37.06Z"/>
    <path class="cls-1" d="M572.51,557.72v-1.27l-1.41-.14v18.25h-24.04v-49.5c0-30.55,20.65-50.92,51.48-50.92s51.48,20.37,51.48,50.92-20.51,50.92-48.37,50.92c-17.82,0-29.14-7.07-29.14-18.25ZM598.53,553.34c16.41,0,27.44-11.32,27.44-28.29s-11.03-28.29-27.44-28.29-27.44,11.32-27.44,28.29,11.03,28.29,27.44,28.29Z"/>
    <path class="cls-1" d="M671.52,473.99c8.06,0,13.44,4.81,13.44,12.02s-5.37,12.02-13.44,12.02-13.44-4.81-13.44-12.02,5.37-12.02,13.44-12.02ZM659.49,503.84h24.04v70.72h-24.04v-70.72Z"/>
    <path class="cls-1" d="M727.92,502.42c21.06,0,35.05,13.01,35.05,31.68,0,17.4-12.01,23.9-17.52,23.9v1.41c7.49,0,18.23,5.94,18.23,20.93,0,18.95-13.99,30.98-35.05,30.98s-35.05-13.3-35.05-33.24h24.03c0,6.36,4.38,10.61,11.02,10.61s11.02-4.24,11.02-10.61-3.53-10.61-11.73-10.61c-21.06,0-35.05-13.01-35.05-32.53s13.99-32.53,35.05-32.53ZM727.92,544.85c9.47,0,11.02-3.96,11.02-9.9s-4.38-9.9-11.02-9.9-11.02,3.96-11.02,9.9,4.38,9.9,11.02,9.9ZM759.86,481.63c8.06,0,13.43,4.81,13.43,12.02s-5.37,12.02-13.43,12.02-13.43-4.81-13.43-12.02,5.37-12.02,13.43-12.02Z"/>
    <path class="cls-1" d="M794.71,473.99c8.06,0,13.44,4.81,13.44,12.02s-5.37,12.02-13.44,12.02-13.44-4.81-13.44-12.02,5.37-12.02,13.44-12.02ZM782.69,503.84h24.04v70.72h-24.04v-70.72Z"/>
    <path class="cls-1" d="M816.21,521.94v-32.81h24.04v15.56h19.94v21.22h-19.94c0,16.27,4.67,24.61,19.94,24.61v24.04c-31.4,0-43.99-18.53-43.99-52.62Z"/>
    <path class="cls-1" d="M899.24,502.28c10.47,0,18.81,1.13,26.45,3.96v20.51c-4.95-1.7-15.42-5.23-27.72-5.23-4.95,0-6.65,1.13-6.65,2.97,0,8.2,37.34,2.83,37.34,28.29,0,16.12-12.45,23.34-32.11,23.34-10.47,0-18.81-1.13-26.45-4.1v-20.51c4.95,1.84,15.42,5.37,27.72,5.37,4.95,0,6.79-1.27,6.79-2.97,0-8.2-37.48-2.97-37.48-28.43,0-15.98,12.45-23.2,32.11-23.2Z"/>
    <g>
      <path class="cls-5" d="M183.96,574.56h-24.04v-59.12c0-27.01,17.11-41.3,43.42-41.3s42.71,14.29,42.71,41.3v59.12h-24.05v-58.84c0-12.73-9.05-18.95-19.09-18.95s-18.95,6.22-18.95,18.95v58.84Z"/>
      <g id="lTWLtr">
        <path class="cls-1" d="M182.83,473.06c-2.68.48-10.36,2.2-16.96,8.98-6.34,6.51-7.96,13.85-8.43,16.57h-6.11v-31.01l.48-.48h30.53l.48.48v5.46Z"/>
      </g>
    </g>
  </g>
</svg>