<?xml version="1.0" encoding="UTF-8"?>
<svg id="Layer_1" data-name="Layer 1" xmlns="http://www.w3.org/2000/svg" viewBox="0 0 1080 1080">
  <defs>
    <style>
      .cls-1 {
        font-family: PrometoTrial-Medium, 'Prometo Trial';
        font-size: 26.47px;
        font-weight: 500;
      }

      .cls-1, .cls-2 {
        fill: #000449;
      }

      .cls-3 {
        letter-spacing: -.11em;
      }

      .cls-4 {
        letter-spacing: -.02em;
      }

      .cls-5 {
        fill: #fff;
      }

      .cls-6 {
        fill: #003cf9;
      }

      .cls-7 {
        letter-spacing: -.01em;
      }

      .cls-8 {
        letter-spacing: -.02em;
      }
    </style>
  </defs>
  <g>
    <rect class="cls-2" x="298.33" y="434.89" width="208.2" height="210.22" rx="31.79" ry="31.79"/>
    <g>
      <path class="cls-5" d="M383.35,609.59h-31.15v-76.59c0-35,22.17-53.5,56.25-53.5s55.33,18.51,55.33,53.5v76.59h-31.15v-76.22c0-16.49-11.73-24.55-24.73-24.55s-24.55,8.06-24.55,24.55v76.22Z"/>
      <g id="lTWLtr">
        <path class="cls-6" d="M381.88,478.11c-3.47.62-13.42,2.85-21.97,11.63-8.21,8.43-10.31,17.94-10.92,21.46h-7.91v-40.17l.62-.62h39.54l.62.62v7.08Z"/>
      </g>
    </g>
  </g>
  <g>
    <text class="cls-1" transform="translate(526.58 635.56)"><tspan x="0" y="0">Built </tspan><tspan class="cls-4" x="61.28" y="0">f</tspan><tspan x="70.65" y="0">or </tspan><tspan class="cls-3" x="102.68" y="0">Y</tspan><tspan x="117.35" y="0">our G</tspan><tspan class="cls-7" x="182.02" y="0">r</tspan><tspan class="cls-8" x="191.92" y="0">o</tspan><tspan x="206.83" y="0">wth</tspan></text>
    <g>
      <g>
        <path class="cls-2" d="M542.93,578.47v-.82l-.91-.09v11.72h-15.44v-31.79c0-19.62,13.26-32.7,33.06-32.7s33.06,13.08,33.06,32.7-13.17,32.7-31.07,32.7c-11.45,0-18.71-4.54-18.71-11.72ZM559.64,575.65c10.54,0,17.62-7.27,17.62-18.17s-7.09-18.17-17.62-18.17-17.62,7.27-17.62,18.17,7.09,18.17,17.62,18.17Z"/>
        <path class="cls-2" d="M606.52,524.7c5.18,0,8.63,3.09,8.63,7.72s-3.45,7.72-8.63,7.72-8.63-3.09-8.63-7.72,3.45-7.72,8.63-7.72ZM598.8,543.86h15.44v45.42h-15.44v-45.42Z"/>
        <path class="cls-2" d="M642.74,542.95c13.52,0,22.51,8.36,22.51,20.35,0,11.17-7.71,15.35-11.25,15.35v.91c4.81,0,11.71,3.82,11.71,13.44,0,12.17-8.99,19.89-22.51,19.89s-22.51-8.54-22.51-21.35h15.43c0,4.09,2.81,6.81,7.08,6.81s7.08-2.72,7.08-6.81-2.27-6.81-7.53-6.81c-13.52,0-22.51-8.36-22.51-20.89s8.99-20.89,22.51-20.89ZM642.74,570.2c6.08,0,7.08-2.54,7.08-6.36s-2.81-6.36-7.08-6.36-7.08,2.54-7.08,6.36,2.81,6.36,7.08,6.36ZM663.26,529.6c5.17,0,8.62,3.09,8.62,7.72s-3.45,7.72-8.62,7.72-8.62-3.09-8.62-7.72,3.45-7.72,8.62-7.72Z"/>
        <path class="cls-2" d="M685.64,524.7c5.18,0,8.63,3.09,8.63,7.72s-3.45,7.72-8.63,7.72-8.63-3.09-8.63-7.72,3.45-7.72,8.63-7.72ZM677.92,543.86h15.44v45.42h-15.44v-45.42Z"/>
        <path class="cls-2" d="M699.44,555.49v-21.07h15.44v9.99h12.81v13.63h-12.81c0,10.45,3,15.81,12.81,15.81v15.44c-20.17,0-28.25-11.9-28.25-33.79Z"/>
        <path class="cls-2" d="M752.77,542.86c6.72,0,12.08.73,16.99,2.54v13.17c-3.18-1.09-9.9-3.36-17.8-3.36-3.18,0-4.27.73-4.27,1.91,0,5.27,23.98,1.82,23.98,18.17,0,10.36-7.99,14.99-20.62,14.99-6.72,0-12.08-.73-16.99-2.63v-13.17c3.18,1.18,9.9,3.45,17.8,3.45,3.18,0,4.36-.82,4.36-1.91,0-5.27-24.07-1.91-24.07-18.26,0-10.26,7.99-14.9,20.62-14.9Z"/>
      </g>
      <g>
        <path class="cls-5" d="M610.97,466.19c14.35,0,23.89,9.45,23.89,23.62s-9.54,23.62-23.89,23.62-23.89-9.45-23.89-23.62,9.54-23.62,23.89-23.62ZM610.97,498.9c5.09,0,8.45-3.72,8.45-9.08s-3.36-9.08-8.45-9.08-8.45,3.72-8.45,9.08,3.36,9.08,8.45,9.08Z"/>
        <path class="cls-5" d="M655.21,512.52h-15.44v-18.8c0-17.71,9.9-26.61,25.16-26.61v15.44c-5.72,0-9.72,3.09-9.72,9.08v20.89Z"/>
        <path class="cls-5" d="M669.74,478.73v-21.07h15.44v9.99h12.81v13.63h-12.81c0,10.45,3,15.81,12.81,15.81v15.44c-20.17,0-28.25-11.9-28.25-33.79Z"/>
        <path class="cls-5" d="M718.07,512.52h-15.44v-68.13h15.44v32.34h.91c0-3.45,3.09-10.54,13.08-10.54,12.63,0,18.62,8.9,18.62,22.07v24.25h-15.44v-23.8c0-4.91-3.18-7.99-8.54-7.99s-8.63,3.09-8.63,7.99v23.8Z"/>
        <path class="cls-5" d="M542.02,512.52h-15.44v-37.97c0-17.35,10.99-26.52,27.89-26.52s27.43,9.17,27.43,26.52v37.97h-15.44v-37.79c0-8.18-5.81-12.17-12.26-12.17s-12.17,4-12.17,12.17v37.79Z"/>
      </g>
    </g>
  </g>
</svg>